# xmcd
# 
# Track frame offsets:
#     150
#     14567
#     28192
#     51710
#     73112
#     87862
#     100625
#     125346
#     141300
#     160083
#     176873
#     195216
#     216658
#     236637
#     249800
#     265122
#     281494
#     294158
# 
# Disc length: 4187
# 
# Revision: 3
# Processed by: cddbd v1.5.2PL0 Copyright (c) Steve Scherf et al.
# Submitted via: fre:ac v1.0.31
# 
DISCID=0a105912
DTITLE=John Denver - Sunshine on my shoulders
DYEAR=2009
DGENRE=Country
TTITLE0=Take me home, country roads
TTITLE1=Annie's song
TTITLE2=Sunshine on my shoulders
TTITLE3=Rocky mountain high
TTITLE4=Everyday
TTITLE5=Thank God I'm a country boy
TTITLE6=Sweet surrender
TTITLE7=I'm sorry
TTITLE8=Fly away
TTITLE9=Like a sad song
TTITLE10=Welcome to my morning
TTITLE11=Back home again
TTITLE12=I'd rather be a cowboy
TTITLE13=Please, daddy
TTITLE14=Friends with you
TTITLE15=Goodbye again
TTITLE16=Baby, you look good to me tonight
TTITLE17=My sweet lady
EXTD=YEAR: 2009
EXTT0=
EXTT1=
EXTT2=
EXTT3=
EXTT4=
EXTT5=
EXTT6=
EXTT7=
EXTT8=
EXTT9=
EXTT10=
EXTT11=
EXTT12=
EXTT13=
EXTT14=
EXTT15=
EXTT16=
EXTT17=
PLAYORDER=
